# AST/ASF file generated using VICON BodyLanguage
# -----------------------------------------------
:version 1.10
:name VICON
:units
  mass 1.0
  length 0.45
  angle deg
:documentation
   .ast/.asf automatically generated from VICON data using
   VICON BodyBuilder and BodyLanguage model FoxedUp or BRILLIANT.MOD
:root
   order TX TY TZ RX RY RZ
   axis XYZ
   position 0 0 0  
   orientation 0 0 0 
:bonedata
  begin
     id 1 
     name lhipjoint
     direction 0.711131 -0.61297 0.344326 
     length 2.29162 
     axis 0 0 0  XYZ
  end
  begin
     id 2 
     name lfemur
     direction 0.34202 -0.939693 0  
     length 6.71424  
     axis 0 0 20  XYZ
    dof rx ry rz
    limits (-160.0 20.0)
           (-70.0 70.0)
           (-60.0 70.0)
  end
  begin
     id 3 
     name ltibia
     direction 0.34202 -0.939693 0   
     length 6.7087   
     axis 0 0 20   XYZ
    dof rx
    limits (-10.0 170.0)
  end
  begin
     id 4 
     name lfoot
     direction 0.0230374 -0.0632947 0.997729   
     length 1.56743   
     axis -90 7.62852e-016 20   XYZ
    dof rx rz
    limits (-45.0 90.0)
           (-70.0 20.0)
  end
  begin
     id 5 
     name ltoes
     direction 1.53585e-011 -4.21885e-011 1   
     length 0.802914   
     axis -90 7.62852e-016 20   XYZ
    dof rx
    limits (-90.0 20.0)
  end
  begin
     id 6 
     name rhipjoint
     direction -0.733192 -0.592884 0.333043   
     length 2.36925  
     axis 0 0 0  XYZ 
  end
  begin
     id 7 
     name rfemur
     direction -0.34202 -0.939693 0   
     length 6.67027   
     axis 0 0 -20   XYZ
    dof rx ry rz
    limits (-160.0 20.0)
           (-70.0 70.0)
           (-70.0 60.0)
  end
  begin
     id 8 
     name rtibia
     direction -0.34202 -0.939693 0   
     length 6.6862   
     axis 0 0 -20   XYZ
    dof rx
    limits (-10.0 170.0)
 end
 begin
     id 9 
     name rfoot
     direction -0.0949739 -0.260939 0.960672   
     length 1.67698  
     axis -90 -7.62852e-016 -20   XYZ
    dof rx rz
    limits (-45.0 90.0)
           (-20.0 70.0)
  end
  begin
     id 10 
     name rtoes
     direction -1.5353e-011 -4.21868e-011 1   
     length 0.846298   
     axis -90 -7.62852e-016 -20   XYZ
    dof rx
    limits (-90.0 20.0)
  end
  begin
     id 11 
     name lowerback
     direction -0.0206828 0.999785 -0.00109866   
     length 2.04382   
     axis 0 0 0   XYZ
    dof rx ry rz
    limits (-20.0 45.0)
           (-30.0 30.0)
           (-30.0 30.0)
  end
  begin
     id 12 
     name upperback
     direction -0.0105003 0.999727 -0.0208904   
     length 2.04538   
     axis 0 0 0   XYZ
    dof rx ry rz
    limits (-20.0 45.0)
           (-30.0 30.0)
           (-30.0 30.0)
  end
  begin
     id 13 
     name thorax
     direction -0.000416255 0.999808 -0.0196023   
     length 2.0399   
     axis 0 0 0   XYZ
    dof rx ry rz
    limits (-20.0 45.0)
           (-30.0 30.0)
           (-30.0 30.0)
  end
  begin
     id 14 
     name lowerneck
     direction 0.0627861 0.989205 0.13241   
     length 1.46207   
     axis 0 0 0   XYZ
    dof rx ry rz
    limits (-20.0 45.0)
           (-30.0 30.0)
           (-30.0 30.0)
  end
  begin
     id 15 
     name upperneck
     direction 0.00627179 0.994526 0.104303   
     length 1.41419   
     axis 0 0 0   XYZ
    dof rx ry rz
    limits (-20.0 45.0)
           (-30.0 30.0)
           (-30.0 30.0)
  end
  begin
     id 16
     name head
     direction -0.00443838 0.999688 0.0245968  
     length 1.50718  
     axis 0 0 0   XYZ
    dof rx ry rz
    limits (-20.0 45.0)
           (-30.0 30.0)
           (-30.0 30.0)
  end
  begin
     id 17 
     name lclavicle
     direction 0.758742 0.650995 -0.0227258  
     length 2.86888  
     axis 0 0 0   XYZ
    dof ry rz
    limits (-20.0 10.0)
           (0.0 20.0)
  end
  begin
     id 18 
     name lhumerus
     direction 1 -4.48962e-011 1.06664e-027   
     length 4.65776   
     axis -180 -30 -90   XYZ
    dof rx ry rz
    limits (-60.0 90.0)
           (-90.0 90.0)
           (-90.0 90.0)
  end
  begin
     id 19
     name lradius
     direction 1 -4.48968e-011 1.40404e-026   
     length 3.55539   
     axis -180 -30 -90   XYZ
    dof rx
    limits (-10.0 170.0)
  end
  begin
     id 20
     name lwrist
     direction 1 -4.48976e-011 3.32647e-026   
     length 1.77769   
     axis -2.20186e-014 90 90   XYZ
    dof ry
    limits (-180.0 0.0)
 end
  begin
     id 21 
     name lhand
     direction 1 -4.48982e-011 6.65293e-026   
     length 0.707264   
     axis -4.24514e-014 90 90   XYZ
    dof rx rz
    limits (-90.0 90.0)
           (-45.0 45.0)
  end
  begin
     id 22 
     name lfingers
     direction 1 -4.48966e-011 1.33059e-025   
     length 0.570215   
     axis -8.49028e-014 90 90   XYZ
    dof rx
    limits (0.0 90.0)
  end
  begin
     id 23
     name lthumb
     direction 0.707107 -6.3493e-011 0.707107   
     length 0.818718   
     axis -90 45 2.85299e-015   XYZ
    dof rx rz
    limits (-45.0 45.0)
           (-45.0 45.0)
  end
  begin
     id 24 
     name rclavicle
     direction -0.870343 0.482028 -0.100759   
     length 3.2251  
     axis 0 0 0   XYZ 
    dof ry rz
    limits (-10.0 20.0)
           (-20.0 0.0)
  end
  begin
     id 25 
     name rhumerus
     direction -1 -4.48974e-011 -9.45849e-028  
     length 4.71925   
     axis -180 30 90   XYZ
    dof rx ry rz
    limits (-90.0 60.0)
           (-90.0 90.0)
           (-90.0 90.0)
  end
  begin
     id 26 
     name rradius
     direction -1 -4.48965e-011 1.17607e-026   
     length 3.5699   
     axis -180 30 90   XYZ
    dof rx
    limits (-10.0 170.0)
  end
  begin
     id 27 
     name rwrist
     direction -1 -4.48968e-011 3.32647e-026   
     length 1.78495   
     axis -2.20186e-014 -90 -90   XYZ
    dof ry
    limits (-180.0 0.0)
  end
  begin
     id 28
     name rhand
     direction -1 -4.48995e-011 6.65293e-026   
     length 0.507757   
     axis -4.24514e-014 -90 -90   XYZ
    dof rx rz
    limits (-90.0 90.0)
           (-45.0 45.0)
  end
  begin
     id 29
     name rfingers
     direction -1 -4.48864e-011 1.33059e-025   
     length 0.409367   
     axis -8.49028e-014 -90 -90   XYZ
    dof rx
    limits (0.0 90.0)
  end
  begin
     id 30
     name rthumb
     direction -0.707107 -6.3494e-011 0.707107   
     length 0.587771   
     axis -90 -45 -2.85299e-015   XYZ
    dof rx rz
    limits (-45.0 45.0)
           (-45.0 45.0)
  end
:hierarchy
  begin
    root lhipjoint rhipjoint lowerback
    lhipjoint lfemur
    lfemur ltibia
    ltibia lfoot
    lfoot ltoes
    rhipjoint rfemur
    rfemur rtibia
    rtibia rfoot
    rfoot rtoes
    lowerback upperback
    upperback thorax
    thorax lowerneck lclavicle rclavicle
    lowerneck upperneck
    upperneck head
    lclavicle lhumerus
    lhumerus lradius
    lradius lwrist
    lwrist lhand lthumb
    lhand lfingers
    rclavicle rhumerus
    rhumerus rradius
    rradius rwrist
    rwrist rhand rthumb
    rhand rfingers
  end

#!OML:ASF E:\Steps\Project 1\Capture day 1\Session 2\Subject.ASF
:FULLY-SPECIFIED
:DEGREES
1
root -0.975683 19.6781 20.6467 -152.395 -2.15115 176.235
lowerback -26.9725 -2.58987 -7.49506
upperback -1.67378 -1.67769 -0.241331
thorax 13.3822 -1.45701 3.35082
lowerneck -3.81122 -2.43898 -1.00467
upperneck 24.2865 -6.41509 3.3332
head 8.28394 -3.64357 0.637828
rclavicle 1.49089e-016 -2.62396e-014
rhumerus -42.9418 -36.1592 -60.5512
rradius 13.9856
rwrist 31.6021
rhand -8.89109 -58.0845
rfingers 7.12502
rthumb 17.0513 -87.3562
lclavicle 1.49089e-016 -2.62396e-014
lhumerus -31.2885 21.0539 71.5518
lradius 5.61745
lwrist -27.783
lhand -22.5922 -6.12552
lfingers 7.12502
lthumb 3.83686 23.8197
rfemur -26.0632 4.21244 18.0754
rtibia 7.11616
rfoot -16.9998 -1.42121
rtoes -9.19084
lfemur -25.5897 -8.49891 -23.8862
ltibia 7.60581
lfoot -6.70359 -0.0924037
ltoes -25.9646
2
root -0.972203 19.6785 20.6402 -152.503 -2.29518 176.221
lowerback -26.8924 -2.6423 -7.52576
upperback -1.6265 -1.73506 -0.212464
thorax 13.4044 -1.48326 3.38138
lowerneck -3.68817 -2.48462 -1.57708
upperneck 24.1193 -6.60073 4.15937
head 8.25531 -3.71232 0.997204
rclavicle -5.56597e-015 2.78299e-015
rhumerus -43.0211 -35.5479 -60.8534
rradius 14.2282
rwrist 30.5654
rhand -8.53003 -58.0674
rfingers 7.12502
rthumb 17.3988 -87.3087
lclavicle -5.56597e-015 2.78299e-015
lhumerus -32.0454 20.8371 71.2056
lradius 6.63712
lwrist -27.0422
lhand -22.6224 -6.69666
lfingers 7.12502
lthumb 3.80773 23.2491
rfemur -25.8098 4.52249 18.0146
rtibia 6.97986
rfoot -17.1162 -1.7809
rtoes -8.92489
lfemur -25.4259 -8.43839 -23.8979
ltibia 7.59653
lfoot -6.75801 -0.275865
ltoes -26.9903
3
root -0.964661 19.6813 20.6296 -152.767 -2.54484 176.165
lowerback -26.6972 -2.76228 -7.6479
upperback -1.51714 -1.85041 -0.170461
thorax 13.449 -1.53904 3.45959
lowerneck -2.85811 -2.29713 -1.20961
upperneck 22.9584 -6.08675 3.88738
head 7.67757 -3.44632 0.926133
rclavicle -1.39398e-014 -5.96354e-015
rhumerus -43.0747 -35.2589 -60.9989
rradius 14.2701
rwrist 29.6875
rhand -8.65432 -58.1925
rfingers 7.12502
rthumb 17.2792 -87.4443
lclavicle -1.39398e-014 -5.96354e-015
lhumerus -32.6998 20.6632 70.8899
lradius 7.56947
lwrist -26.1447
lhand -22.024 -7.5472
lfingers 7.12502
lthumb 4.38556 22.3874
rfemur -25.2868 5.36188 17.8304
rtibia 6.76348
rfoot -17.2063 -2.85529
rtoes -9.0098
lfemur -25.0358 -8.38526 -23.9296
ltibia 7.4711
lfoot -6.76545 -0.563058
ltoes -27.0589
4
root -0.961467 19.6831 20.6245 -152.909 -2.66646 176.127
lowerback -26.5817 -2.82492 -7.69778
upperback -1.46207 -1.91607 -0.152899
thorax 13.4627 -1.56944 3.48572
lowerneck -3.59567 -2.54214 -1.72776
upperneck 23.9275 -6.68018 4.36248
head 8.18757 -3.74256 1.08826
rclavicle 4.84538e-015 1.91827e-014
rhumerus -43.1646 -35.0903 -61.0925
rradius 14.3292
rwrist 28.8785
rhand -8.89465 -58.1958
rfingers 7.12502
rthumb 17.0478 -87.4678
lclavicle 4.84538e-015 1.91827e-014
lhumerus -33.3205 20.5212 70.5888
lradius 8.40094
lwrist -25.2874
lhand -21.3166 -8.63203
lfingers 7.12502
lthumb 5.06867 21.2873
rfemur -24.9281 4.75217 17.9968
rtibia 6.45144
rfoot -17.0153 -2.41791
rtoes -9.49115
lfemur -24.8245 -8.3097 -23.9739
ltibia 7.39754
lfoot -6.73024 -0.753887
ltoes -26.391
5
root -0.961556 19.6833 20.6251 -152.893 -2.65713 176.119
lowerback -26.578 -2.83344 -7.72314
upperback -1.4647 -1.92291 -0.128383
thorax 13.4602 -1.5748 3.52626
lowerneck -3.10828 -2.51685 -1.44813
upperneck 23.3617 -6.5314 4.16082
head 7.88785 -3.66494 1.00769
rclavicle -1.36664e-015 -1.69961e-014
rhumerus -43.2135 -34.8779 -61.1852
rradius 14.4066
rwrist 28.2449
rhand -8.85075 -57.5927
rfingers 7.12502
rthumb 17.0901 -86.8611
lclavicle -1.36664e-015 -1.69961e-014
lhumerus -33.8311 20.4175 70.4191
lradius 9.1375
lwrist -24.5011
lhand -20.7843 -8.78541
lfingers 7.12502
lthumb 5.58265 21.1211
rfemur -24.9287 4.50936 18.0418
rtibia 6.39763
rfoot -16.9774 -2.21886
rtoes -9.65099
lfemur -24.842 -8.22024 -24.0072
ltibia 7.4093
lfoot -6.70691 -0.852534
ltoes -25.7992
6
root -0.961614 19.6826 20.6234 -152.914 -2.63112 176.081
lowerback -26.5783 -2.84324 -7.79152
upperback -1.45444 -1.91487 -0.116306
thorax 13.4742 -1.57605 3.58248
lowerneck -2.8307 -2.46658 -1.44671
upperneck 23.077 -6.40649 4.13123
head 7.73702 -3.60856 1.0188
rclavicle 2.23633e-015 -9.64106e-015
rhumerus -43.2618 -34.6315 -61.3145
rradius 14.5009
rwrist 27.6368
rhand -8.74052 -56.7315
rfingers 7.12502
rthumb 17.1962 -85.9906
lclavicle 2.23633e-015 -9.64106e-015
lhumerus -34.2799 20.3221 70.2944
lradius 9.84726
lwrist -23.7391
lhand -20.4511 -8.36175
lfingers 7.12502
lthumb 5.90434 21.536
rfemur -24.8891 4.63272 17.9523
rtibia 6.37193
rfoot -17.055 -2.30733
rtoes -9.17932
lfemur -24.7933 -8.16031 -24.0883
ltibia 7.396
lfoot -6.7287 -0.900719
ltoes -25.9577
7
root -0.962935 19.6818 20.6213 -152.925 -2.62691 176.051
lowerback -26.6022 -2.84153 -7.79982
upperback -1.43377 -1.90293 -0.134348
thorax 13.5099 -1.57137 3.57001
lowerneck -2.53337 -2.40058 -1.40509
upperneck 22.7626 -6.26981 4.14269
head 7.57353 -3.53999 1.03784
rclavicle 1.26725e-015 1.05356e-014
rhumerus -43.3886 -34.5647 -61.3697
rradius 14.5976
rwrist 27.0572
rhand -9.06637 -56.0656
rfingers 7.12502
rthumb 16.8825 -85.3518
lclavicle 1.26725e-015 1.05356e-014
lhumerus -34.6929 20.209 70.1437
lradius 10.5454
lwrist -23.0078
lhand -20.5548 -8.44317
lfingers 7.12502
lthumb 5.80419 21.4573
rfemur -24.8556 4.64114 17.9169
rtibia 6.35822
rfoot -17.0985 -2.29628
rtoes -9.1266
lfemur -24.7542 -8.12455 -24.1592
ltibia 7.38914
lfoot -6.72394 -0.923323
ltoes -25.6995
8
root -0.963534 19.6824 20.6184 -152.945 -2.67537 176.051
lowerback -26.603 -2.86138 -7.79865
upperback -1.4267 -1.9298 -0.113399
thorax 13.5231 -1.58405 3.58328
lowerneck -2.6969 -2.45909 -1.48361
upperneck 23.0786 -6.42808 4.20404
head 7.71776 -3.62439 1.04983
rclavicle -1.48095e-014 -1.39149e-015
rhumerus -43.4476 -34.4556 -61.443
rradius 14.7714
rwrist 26.9359
rhand -8.78595 -55.8201
rfingers 7.12502
rthumb 17.1525 -85.083
lclavicle -1.48095e-014 -1.39149e-015
lhumerus -34.7994 18.8576 71.0031
lradius 11.2266
lwrist -20.7694
lhand -21.014 -9.04508
lfingers 7.12502
lthumb 5.36082 20.8671
rfemur -24.7858 4.61056 17.9371
rtibia 6.3486
rfoot -17.0295 -2.29935
rtoes -8.93198
lfemur -24.7064 -8.13552 -24.152
ltibia 7.35116
lfoot -6.67769 -0.979052
ltoes -24.914
9
root -0.963122 19.6838 20.6159 -152.982 -2.69429 176.08
lowerback -26.5786 -2.85487 -7.7873
upperback -1.43176 -1.92933 -0.0887218
thorax 13.5044 -1.58299 3.60638
lowerneck -2.68523 -2.19026 -1.54629
upperneck 23.0599 -5.99282 4.0992
head 7.69226 -3.42594 1.06114
rclavicle 1.69712e-014 6.36111e-015
rhumerus -43.6099 -34.6183 -61.2229
rradius 14.7675
rwrist 27.0659
rhand -8.73954 -55.6105
rfingers 7.12502
rthumb 17.1971 -84.8695
lclavicle 1.69712e-014 6.36111e-015
lhumerus -34.9499 17.6156 71.7912
lradius 11.9016
lwrist -18.7044
lhand -21.3706 -10.0475
lfingers 7.12502
lthumb 5.01653 19.8731
rfemur -24.7145 4.68034 17.9551
rtibia 6.33522
rfoot -17.0144 -2.3372
rtoes -8.22903
lfemur -24.649 -8.18014 -24.0954
ltibia 7.30895
lfoot -6.65229 -0.971519
ltoes -25.7381
